# Blender v2.80 (sub 53) OBJ File: ''
# www.blender.org
mtllib note.mtl
o Cube
v -0.776877 0.776877 -0.115129
v -0.776877 -0.776877 -0.115129
v 0.776877 0.776877 -0.115129
v 0.776877 -0.776877 -0.115129
v -0.776877 0.776877 0.115129
v -0.776877 -0.776877 0.115129
v 0.776877 0.776877 0.115129
v 0.776877 -0.776877 0.115129
v -1.000000 -1.000000 0.115129
v 1.000000 -1.000000 0.115129
v -1.000000 1.000000 -0.115129
v -1.000000 -1.000000 -0.115129
v 1.000000 1.000000 0.115129
v 1.000000 1.000000 -0.115129
v 1.000000 -1.000000 -0.115129
v -1.000000 1.000000 0.115129
vt 0.625000 0.000000
vt 0.375000 0.250000
vt 0.375000 0.000000
vt 0.625000 0.250000
vt 0.375000 0.500000
vt 0.375000 0.250000
vt 0.625000 0.750000
vt 0.375000 1.000000
vt 0.375000 0.750000
vt 0.875000 0.500000
vt 0.625000 0.500000
vt 0.402890 0.722110
vt 0.402890 0.527890
vt 0.152890 0.527890
vt 0.375000 0.500000
vt 0.347110 0.527890
vt 0.625000 0.500000
vt 0.597110 0.527890
vt 0.347110 0.722110
vt 0.125000 0.750000
vt 0.152890 0.722110
vt 0.597110 0.722110
vt 0.375000 0.750000
vt 0.625000 0.750000
vt 0.125000 0.500000
vt 0.625000 0.250000
vt 0.625000 1.000000
vt 0.875000 0.750000
vn 0.0000 1.0000 0.0000
vn 1.0000 0.0000 0.0000
vn 0.0000 -1.0000 0.0000
vn -1.0000 0.0000 0.0000
vn -0.0000 -0.0000 1.0000
vn 0.0000 0.0000 -1.0000
usemtl (null)
s off
f 16/1/1 14/2/1 11/3/1
f 14/4/2 10/5/2 15/6/2
f 12/7/3 10/8/3 9/9/3
f 16/10/4 12/7/4 9/11/4
f 6/12/5 10/5/5 8/13/5
f 2/14/6 11/15/6 1/16/6
f 8/13/5 13/17/5 7/18/5
f 3/19/6 15/20/6 4/21/6
f 5/22/5 9/9/5 6/12/5
f 1/16/6 14/23/6 3/19/6
f 7/18/5 16/24/5 5/22/5
f 4/21/6 12/25/6 2/14/6
f 8/13/1 2/14/1 6/12/1
f 7/18/4 4/21/4 8/13/4
f 3/19/3 5/22/3 1/16/3
f 1/16/2 6/12/2 2/14/2
f 16/1/1 13/26/1 14/2/1
f 14/4/2 13/17/2 10/5/2
f 12/7/3 15/27/3 10/8/3
f 16/10/4 11/28/4 12/7/4
f 6/12/5 9/9/5 10/5/5
f 2/14/6 12/25/6 11/15/6
f 8/13/5 10/5/5 13/17/5
f 3/19/6 14/23/6 15/20/6
f 5/22/5 16/24/5 9/9/5
f 1/16/6 11/15/6 14/23/6
f 7/18/5 13/17/5 16/24/5
f 4/21/6 15/20/6 12/25/6
f 8/13/1 4/21/1 2/14/1
f 7/18/4 3/19/4 4/21/4
f 3/19/3 7/18/3 5/22/3
f 1/16/2 5/22/2 6/12/2
